<svg width="175" height="46" fill="none" xmlns="http://www.w3.org/2000/svg"><path d="M68.249 10.454h3.075v9.447c0 1.06-.254 1.988-.76 2.784-.502.795-1.205 1.415-2.11 1.86-.904.44-1.957.661-3.16.661-1.207 0-2.263-.22-3.168-.66-.904-.446-1.607-1.066-2.109-1.861-.502-.796-.753-1.724-.753-2.784v-9.447h3.075v9.184c0 .554.121 1.046.363 1.477.246.43.592.77 1.037 1.016.445.246.963.369 1.555.369.597 0 1.115-.123 1.555-.37a2.593 2.593 0 001.03-1.015c.246-.43.37-.923.37-1.477v-9.184zm8.874 8.24V25h-3.026V14.09h2.884v1.926h.128a3.044 3.044 0 011.214-1.506c.568-.374 1.257-.561 2.067-.561.757 0 1.418.166 1.981.497a3.38 3.38 0 011.314 1.42c.313.611.469 1.34.469 2.188V25h-3.025v-6.406c.004-.668-.166-1.189-.512-1.563-.346-.378-.821-.568-1.427-.568a2.17 2.17 0 00-1.08.263 1.83 1.83 0 00-.724.767c-.17.331-.258.731-.263 1.2zM86.839 25V14.09h3.025V25H86.84zm1.52-12.315c-.45 0-.836-.15-1.158-.448a1.45 1.45 0 01-.476-1.086c0-.417.159-.775.476-1.073a1.63 1.63 0 011.158-.454c.45 0 .833.151 1.15.454.322.298.483.656.483 1.073 0 .421-.16.783-.483 1.086a1.62 1.62 0 01-1.15.448zM95.152 25h-3.296l5.022-14.546h3.963L105.855 25h-3.296l-3.643-11.222h-.114L95.152 25zm-.206-5.717h7.784v2.4h-7.784v-2.4zm15.928-8.829V25h-3.025V10.454h3.025zm9.72 9.901v-6.264h3.025V25h-2.905v-1.982h-.113a3.22 3.22 0 01-1.229 1.542c-.568.388-1.262.582-2.081.582-.729 0-1.371-.166-1.925-.497a3.42 3.42 0 01-1.299-1.413c-.308-.611-.464-1.343-.469-2.195V14.09h3.026v6.406c.004.644.177 1.153.518 1.527.341.374.798.561 1.371.561a2.18 2.18 0 001.023-.248c.317-.17.572-.422.767-.753.198-.332.295-.741.291-1.229zM126.339 25V14.09h2.884v1.926h.128a3.026 3.026 0 011.136-1.513c.53-.37 1.165-.554 1.904-.554.748 0 1.385.187 1.91.56.526.37.876.872 1.051 1.507h.114a2.901 2.901 0 011.207-1.499c.587-.379 1.281-.568 2.081-.568 1.018 0 1.844.324 2.479.973.639.644.959 1.558.959 2.741V25h-3.019v-6.74c0-.606-.161-1.06-.483-1.364-.322-.303-.724-.454-1.207-.454-.549 0-.978.175-1.286.525-.307.346-.461.803-.461 1.371V25h-2.934v-6.804c0-.535-.153-.961-.461-1.278-.303-.318-.703-.476-1.2-.476-.337 0-.64.085-.91.255a1.76 1.76 0 00-.632.704 2.234 2.234 0 00-.234 1.05V25h-3.026zm21.568-6.307V25h-3.025V14.09h2.883v1.926h.128a3.042 3.042 0 011.214-1.506c.569-.374 1.258-.561 2.067-.561.758 0 1.418.166 1.982.497a3.385 3.385 0 011.314 1.42c.312.611.468 1.34.468 2.188V25h-3.025v-6.406c.005-.668-.166-1.189-.512-1.563-.345-.378-.821-.568-1.427-.568-.407 0-.767.088-1.08.263-.307.175-.549.43-.724.767-.17.331-.258.731-.263 1.2zM157.623 25V14.09h3.026V25h-3.026zm1.52-12.315c-.45 0-.836-.15-1.158-.448a1.452 1.452 0 01-.476-1.086c0-.417.159-.775.476-1.073a1.63 1.63 0 011.158-.454c.45 0 .833.151 1.15.454.322.298.483.656.483 1.073 0 .421-.161.783-.483 1.086-.317.299-.7.448-1.15.448z" fill="#3B60C9"/><path d="M62.38 33.182h.881v3.826c0 .408-.095.768-.287 1.083-.19.312-.46.559-.806.739-.347.178-.753.267-1.22.267-.463 0-.868-.09-1.215-.267a2.006 2.006 0 01-.807-.74 2.04 2.04 0 01-.287-1.082v-3.826h.878v3.755c0 .264.058.498.173.702.118.205.284.366.498.483.213.116.467.173.76.173.296 0 .551-.057.765-.173a1.21 1.21 0 00.494-.483c.116-.204.174-.438.174-.702v-3.755zm2.659 3.227V39h-.85v-4.364h.816v.71h.054c.1-.23.257-.416.471-.556.216-.14.488-.21.816-.21.297 0 .557.062.781.187.223.123.397.307.52.551.123.245.184.547.184.906V39h-.849v-2.673c0-.317-.082-.564-.247-.742-.165-.18-.391-.27-.68-.27-.196 0-.371.043-.525.128a.92.92 0 00-.36.375c-.088.163-.131.36-.131.591zM68.69 39v-4.364h.85V39h-.85zm.429-5.037a.54.54 0 01-.381-.148.48.48 0 01-.156-.358c0-.14.052-.26.156-.358.106-.1.233-.15.38-.15a.53.53 0 01.379.15.47.47 0 01.159.358.476.476 0 01-.16.358.53.53 0 01-.377.148zm5.016.673L72.554 39h-.91l-1.585-4.364h.912l1.105 3.358h.046l1.102-3.358h.912zm2.25 4.452c-.43 0-.8-.092-1.11-.276a1.868 1.868 0 01-.716-.78c-.167-.338-.25-.733-.25-1.185 0-.447.083-.841.25-1.182.168-.341.403-.607.704-.798a1.948 1.948 0 011.063-.287c.246 0 .485.04.716.122.23.081.438.209.622.383.183.175.328.4.434.68.106.276.16.612.16 1.008v.3h-3.47v-.636h2.637c0-.223-.045-.42-.136-.593a1.03 1.03 0 00-.958-.563 1.11 1.11 0 00-.625.176 1.182 1.182 0 00-.409.455 1.312 1.312 0 00-.142.605v.497c0 .292.051.54.154.744.104.205.249.361.434.47.186.105.403.158.65.158.162 0 .309-.022.441-.068a.913.913 0 00.565-.554l.805.145c-.065.237-.18.444-.347.622a1.68 1.68 0 01-.622.412 2.328 2.328 0 01-.85.145zM78.921 39v-4.364h.821v.694h.045c.08-.235.22-.42.421-.554a1.2 1.2 0 01.688-.205 3.621 3.621 0 01.36.02v.812a1.506 1.506 0 00-.182-.03 1.729 1.729 0 00-.26-.02c-.202 0-.38.042-.538.127a.95.95 0 00-.505.855V39h-.85zm6.06-3.298l-.77.136a.911.911 0 00-.153-.281.76.76 0 00-.279-.219 1.007 1.007 0 00-.44-.085c-.24 0-.441.054-.602.162-.161.106-.242.243-.242.412 0 .145.054.263.162.352.108.089.283.162.523.219l.693.159c.402.093.701.236.898.429.197.193.295.444.295.753 0 .261-.075.494-.227.699a1.5 1.5 0 01-.628.477 2.323 2.323 0 01-.929.173c-.488 0-.887-.104-1.196-.312a1.321 1.321 0 01-.568-.895l.821-.125a.786.786 0 00.316.486c.159.107.366.161.622.161.278 0 .5-.057.667-.173.167-.117.25-.26.25-.429a.446.446 0 00-.153-.344c-.1-.092-.255-.163-.463-.21l-.739-.162c-.407-.093-.708-.24-.903-.443a1.07 1.07 0 01-.29-.77 1.1 1.1 0 01.216-.676c.144-.193.343-.344.597-.452a2.17 2.17 0 01.872-.164c.471 0 .843.102 1.113.306.271.203.45.475.537.816zm.74 3.298v-4.364h.849V39h-.85zm.428-5.037a.54.54 0 01-.38-.148.48.48 0 01-.157-.358c0-.14.053-.26.157-.358.106-.1.233-.15.38-.15.148 0 .274.05.378.15a.47.47 0 01.16.358.476.476 0 01-.16.358.53.53 0 01-.378.148zm3.32.673v.682h-2.383v-.682h2.383zm-1.744-1.045h.85v4.128c0 .164.024.289.073.372a.39.39 0 00.19.167c.08.029.167.043.26.043a.99.99 0 00.178-.014l.12-.023.153.702a1.659 1.659 0 01-.551.09 1.496 1.496 0 01-.625-.119 1.071 1.071 0 01-.469-.386c-.12-.174-.179-.393-.179-.656V33.59zm2.941 7.045a1.775 1.775 0 01-.58-.093l.205-.696c.155.041.294.06.415.054a.497.497 0 00.32-.137c.096-.085.179-.224.25-.417l.106-.29-1.597-4.42h.91l1.105 3.386h.045l1.105-3.387h.912l-1.798 4.946c-.083.228-.19.42-.318.577-.13.16-.283.279-.46.358-.179.08-.385.12-.62.12zM96.777 39h-.932l2.094-5.818h1.014L101.047 39h-.932l-1.645-4.761h-.045L96.777 39zm.156-2.278h3.023v.738h-3.023v-.738zm5.456-3.54V39h-.85v-5.818h.85zm3.627 4.008v-2.554h.852V39h-.835v-.756h-.046c-.1.233-.261.427-.483.583-.22.153-.493.23-.821.23-.28 0-.528-.062-.744-.185a1.298 1.298 0 01-.506-.554c-.121-.244-.182-.546-.182-.906v-2.776h.85v2.674c0 .297.082.534.247.71a.84.84 0 00.642.264 1.04 1.04 0 00.869-.48c.106-.161.158-.366.157-.614zm1.713 1.81v-4.364h.815v.71h.054c.091-.24.24-.427.446-.562a1.32 1.32 0 01.742-.204c.292 0 .536.068.733.204.199.136.346.324.44.563h.046c.104-.233.27-.419.497-.557.227-.14.498-.21.812-.21.396 0 .719.124.969.372.252.248.378.622.378 1.122V39h-.849v-2.847c0-.295-.081-.51-.242-.642a.878.878 0 00-.577-.199c-.276 0-.491.086-.645.256a.932.932 0 00-.23.65V39h-.846v-2.9a.76.76 0 00-.222-.572.792.792 0 00-.577-.215.827.827 0 00-.446.127.939.939 0 00-.326.35c-.082.15-.122.323-.122.52V39h-.85zm7.64-2.59V39h-.85v-4.364h.816v.71h.054c.1-.23.257-.416.471-.556.216-.14.488-.21.816-.21.297 0 .557.062.781.187.223.123.397.307.52.551.123.245.185.547.185.906V39h-.85v-2.673c0-.317-.082-.564-.247-.742-.165-.18-.391-.27-.679-.27a1.07 1.07 0 00-.526.128.92.92 0 00-.36.375c-.088.163-.131.36-.131.591zm3.652 2.59v-4.364h.849V39h-.849zm.429-5.037a.54.54 0 01-.381-.148.48.48 0 01-.156-.358c0-.14.052-.26.156-.358.106-.1.233-.15.381-.15.147 0 .273.05.378.15a.47.47 0 01.159.358.476.476 0 01-.159.358.533.533 0 01-.378.148zM122.638 39v-5.818h.878v2.528h2.901v-2.528h.88V39h-.88v-2.537h-2.901V39h-.878zm7.627-4.364v.682h-2.384v-.682h2.384zm-1.745-1.045h.85v4.128c0 .164.024.289.073.372.05.081.113.137.191.167a.762.762 0 00.258.043.984.984 0 00.179-.014l.12-.023.153.702a1.664 1.664 0 01-.551.09 1.494 1.494 0 01-.625-.119 1.071 1.071 0 01-.469-.386c-.119-.174-.179-.393-.179-.656V33.59zM130.924 39v-4.364h.815v.71h.054c.091-.24.24-.427.446-.562a1.32 1.32 0 01.742-.204c.292 0 .536.068.733.204.199.136.346.324.44.563h.046c.104-.233.27-.419.497-.557.227-.14.498-.21.812-.21.396 0 .719.124.969.372.252.248.378.622.378 1.122V39h-.849v-2.847c0-.295-.081-.51-.242-.642a.878.878 0 00-.577-.199c-.276 0-.491.086-.645.256a.932.932 0 00-.23.65V39h-.846v-2.9a.76.76 0 00-.222-.572.792.792 0 00-.577-.215.827.827 0 00-.446.127.939.939 0 00-.326.35c-.082.15-.122.323-.122.52V39h-.85zm7.64-5.818V39h-.85v-5.818h.85zm2.481.755v-.755h4.503v.755h-1.815V39h-.875v-5.063h-1.813zm6.398 5.151c-.43 0-.801-.092-1.111-.276a1.864 1.864 0 01-.716-.78c-.167-.338-.25-.733-.25-1.185 0-.447.083-.841.25-1.182.168-.341.403-.607.704-.798a1.953 1.953 0 011.063-.287c.246 0 .485.04.716.122.231.081.438.209.622.383.184.175.329.4.435.68.106.276.159.612.159 1.008v.3h-3.469v-.636h2.636c0-.223-.045-.42-.136-.593a1.036 1.036 0 00-.957-.563c-.239 0-.447.059-.625.176a1.178 1.178 0 00-.409.455 1.308 1.308 0 00-.142.605v.497c0 .292.051.54.153.744.104.205.249.361.435.47.185.105.402.158.65.158.161 0 .308-.022.441-.068a.907.907 0 00.565-.554l.804.145a1.46 1.46 0 01-.347.622 1.68 1.68 0 01-.622.412 2.326 2.326 0 01-.849.145zm2.534-.088v-4.364h.816v.71h.054c.091-.24.239-.427.446-.562.206-.136.453-.204.741-.204.292 0 .536.068.733.204.199.136.346.324.44.563h.046c.104-.233.27-.419.497-.557.227-.14.498-.21.812-.21.396 0 .719.124.969.372.252.248.378.622.378 1.122V39h-.849v-2.847c0-.295-.081-.51-.242-.642a.878.878 0 00-.577-.199c-.276 0-.491.086-.644.256a.928.928 0 00-.231.65V39h-.846v-2.9a.76.76 0 00-.222-.572.79.79 0 00-.576-.215.825.825 0 00-.446.127.933.933 0 00-.327.35c-.082.15-.122.323-.122.52V39h-.85zm6.791 1.636v-6h.829v.708h.071a2.37 2.37 0 01.213-.316 1.21 1.21 0 01.387-.312c.164-.091.382-.136.653-.136.352 0 .667.089.943.267.277.178.494.434.651.77.159.335.238.738.238 1.21 0 .471-.078.876-.235 1.213a1.85 1.85 0 01-.648.775c-.275.18-.588.27-.94.27-.266 0-.482-.044-.651-.133a1.23 1.23 0 01-.392-.313 2.328 2.328 0 01-.219-.318h-.051v2.315h-.849zm.832-3.818c0 .307.044.576.133.807.09.231.218.412.387.543a.989.989 0 00.619.193.998.998 0 00.637-.202c.17-.136.299-.32.386-.554a2.19 2.19 0 00.133-.787c0-.288-.043-.546-.13-.775a1.182 1.182 0 00-.387-.543 1.008 1.008 0 00-.639-.199c-.246 0-.454.064-.625.19a1.171 1.171 0 00-.383.532 2.22 2.22 0 00-.131.795zm4.675-3.636V39h-.85v-5.818h.85zm2.132 5.915a1.79 1.79 0 01-.75-.154 1.268 1.268 0 01-.531-.451 1.294 1.294 0 01-.193-.725c0-.246.047-.449.142-.608.094-.159.222-.285.383-.378.161-.093.341-.163.54-.21.199-.047.402-.083.608-.108l.636-.074a.94.94 0 00.356-.1c.073-.045.11-.119.11-.22v-.02c0-.249-.07-.441-.21-.577-.138-.137-.345-.205-.619-.205-.286 0-.512.063-.676.19a1.013 1.013 0 00-.338.418l-.799-.182c.095-.265.233-.479.415-.642.184-.165.395-.284.634-.358.238-.076.489-.113.752-.113.175 0 .359.02.554.062.197.04.381.114.552.222.172.108.313.262.423.463.11.199.165.457.165.775V39h-.83v-.597h-.034c-.055.11-.137.218-.247.324a1.33 1.33 0 01-.424.265c-.172.07-.378.105-.619.105zm.185-.682c.235 0 .435-.047.602-.14a.979.979 0 00.384-.363.943.943 0 00.133-.486v-.562a.442.442 0 01-.176.085 2.723 2.723 0 01-.293.065l-.321.048-.261.035a2.08 2.08 0 00-.452.105.782.782 0 00-.324.213.535.535 0 00-.119.363c0 .21.078.37.233.478.155.106.353.159.594.159zm4.857-3.779v.682h-2.384v-.682h2.384zm-1.744-1.045h.849v4.128c0 .164.025.289.074.372a.387.387 0 00.19.167c.08.029.166.043.259.043a.991.991 0 00.179-.014l.119-.023.153.702a1.656 1.656 0 01-.551.09 1.497 1.497 0 01-.625-.119 1.069 1.069 0 01-.468-.386c-.12-.174-.179-.393-.179-.656V33.59zm4.237 5.497c-.43 0-.8-.092-1.11-.276a1.864 1.864 0 01-.716-.78c-.167-.338-.25-.733-.25-1.185 0-.447.083-.841.25-1.182.168-.341.403-.607.704-.798a1.948 1.948 0 011.063-.287c.246 0 .485.04.716.122.231.081.438.209.622.383.183.175.328.4.434.68.106.276.159.612.159 1.008v.3h-3.468v-.636h2.636c0-.223-.045-.42-.136-.593a1.031 1.031 0 00-.384-.412c-.163-.1-.354-.15-.574-.15a1.11 1.11 0 00-.625.175 1.186 1.186 0 00-.409.455 1.32 1.32 0 00-.142.605v.497c0 .292.051.54.154.744.104.205.249.361.434.47.186.105.403.158.651.158.161 0 .308-.022.44-.068a.92.92 0 00.566-.554l.804.145a1.46 1.46 0 01-.347.622 1.68 1.68 0 01-.622.412 2.328 2.328 0 01-.85.145z" fill="#242835"/><path d="M11.597 28.462a1.542 1.542 0 10-2.751-1.394 1.542 1.542 0 002.751 1.394z" fill="#3350A3"/><path d="M20.173 44.312l-.108-.071c.248-.272.382-.709.286-1.171-.104-.508-.458-.878-.84-.943-.293.274-.415.778-.304 1.273.034.15.086.287.153.406l-.314-.184-.316-.178-.113-.063c.23-.288.329-.736.205-1.187-.136-.5-.508-.839-.89-.88-.272.292-.366.802-.224 1.29a1.6 1.6 0 00.178.395s-.162-.084-.325-.163l-.326-.16-.117-.054c.211-.303.282-.755.132-1.198-.165-.487-.552-.807-.937-.824-.255.307-.32.822-.15 1.299.05.146.12.274.2.385l-.332-.145-.335-.138-.12-.05c.193-.314.241-.774.068-1.202-.19-.481-.594-.772-.975-.774-.238.322-.276.836-.081 1.307.058.142.136.266.221.37l-.681-.245-.124-.041c.176-.325.199-.783.004-1.205a1.332 1.332 0 00-.443-.544c-.171-.123-.393-.192-.542-.175a1.387 1.387 0 00-.041 1.307c.064.14.148.259.238.36l-.688-.218-.121-.04c.169-.326.18-.786.025-1.194a1.337 1.337 0 00-.345-.537.778.778 0 00-.224-.14.602.602 0 00-.239-.057c-.242.307-.35.813-.188 1.288.05.14.122.264.205.37l-.332-.127-.329-.142-.117-.053c.205-.31.262-.759.155-1.183-.115-.48-.395-.77-.715-.816-.278.28-.44.765-.335 1.259.032.153.09.276.161.391l-.1-.05c-.06-.03-.14-.07-.216-.115l-.31-.176-.11-.063c.238-.286.343-.719.293-1.16a1.268 1.268 0 00-.216-.594.658.658 0 00-.403-.295c-.31.249-.525.707-.475 1.207.017.15.052.292.113.412 0 0-.038-.023-.092-.063s-.128-.09-.199-.142a25.69 25.69 0 00-.29-.207l-.103-.076c.268-.25.431-.684.429-1.12-.01-.48-.199-.846-.51-.952-.333.207-.609.646-.613 1.142-.002.15.023.292.063.422l-.266-.236-.184-.163c-.05-.044-.08-.078-.08-.078l-.09-.09c.295-.22.509-.627.555-1.06a1.4 1.4 0 00-.067-.63.746.746 0 00-.326-.38c-.354.165-.68.573-.745 1.067-.019.148-.01.29.017.422l-.24-.264a3.21 3.21 0 01-.16-.186c-.041-.052-.07-.085-.07-.085l-.082-.099c.32-.184.577-.564.667-.987.115-.48-.01-.865-.278-1.054-.375.128-.734.49-.86.979a1.264 1.264 0 00-.03.42s-.108-.142-.21-.288l-.199-.297-.071-.107c.34-.15.63-.493.776-.912.081-.232.1-.45.067-.633a.71.71 0 00-.237-.45c-.386.088-.78.41-.955.883a1.177 1.177 0 00-.078.418s-.094-.15-.175-.312l-.168-.316-.06-.113c.353-.112.675-.424.87-.828.21-.447.163-.85-.059-1.096-.391.046-.818.329-1.046.785a1.305 1.305 0 00-.115.405s-.077-.16-.146-.326l-.13-.332-.046-.12c.36-.075.724-.357.941-.734.245-.422.264-.844.044-1.102-.395.009-.847.251-1.102.678a1.34 1.34 0 00-.159.395l-.22-.68-.03-.123c.363-.04.754-.286 1.012-.648.142-.2.22-.404.24-.594a.705.705 0 00-.098-.508c-.395-.027-.864.175-1.165.581-.09.121-.161.253-.197.38 0 0-.012-.041-.027-.108a13.713 13.713 0 00-.05-.24l-.071-.352-.025-.125c.37-.009.771-.22 1.058-.557.328-.378.395-.794.234-1.091-.385-.06-.886.106-1.206.483a1.35 1.35 0 00-.222.362l-.052-.354a4.899 4.899 0 01-.044-.355l-.013-.128c.368.021.793-.157 1.102-.473.335-.349.46-.763.318-1.074-.387-.09-.88.037-1.242.39a1.413 1.413 0 00-.257.346l-.034-.715-.006-.128c.37.048.793-.094 1.133-.387.381-.326.509-.732.398-1.052-.373-.12-.89-.025-1.268.3a1.36 1.36 0 00-.274.323v-.357c0-.09 0-.18.007-.247l.006-.11.006-.129c.36.076.807-.037 1.16-.305.384-.299.568-.694.471-1.024-.37-.145-.878-.086-1.284.21-.123.09-.223.195-.303.306l.07-.713.012-.128c.357.1.799.02 1.177-.223.423-.27.609-.657.54-.994-.352-.17-.879-.146-1.295.124a1.3 1.3 0 00-.316.284l.05-.355c.024-.178.06-.354.06-.354l.024-.125c.347.123.803.073 1.192-.145.216-.121.373-.276.477-.441a.744.744 0 00.128-.512c-.348-.193-.858-.203-1.303.037a1.28 1.28 0 00-.341.262s.008-.044.023-.109l.056-.24.084-.35.03-.123c.338.146.794.125 1.191-.067.454-.213.7-.569.667-.914-.334-.215-.842-.26-1.296-.046a1.315 1.315 0 00-.354.24l.2-.688.04-.12c.327.167.79.179 1.203.012.23-.092.41-.226.532-.379a.867.867 0 00.194-.533c-.32-.238-.834-.285-1.303-.094a1.35 1.35 0 00-.364.22s.055-.17.117-.34l.122-.34.044-.121c.322.177.78.209 1.206.012.47-.211.76-.673.73-1.104-.34-.222-.86-.18-1.315.056a1.642 1.642 0 00-.358.25s.055-.174.103-.352c.05-.176.092-.356.092-.356l.029-.127c.339.14.803.115 1.2-.176.22-.161.38-.379.47-.61a.996.996 0 00.06-.245c.01-.115.014-.15.016-.203a.85.85 0 00-.044-.293c-.382-.121-.88.017-1.26.354-.057.054-.11.123-.164.18a1.89 1.89 0 00-.138.162s.004-.045.013-.114a2.02 2.02 0 00.014-.262l.002-.364v-.13c.258-.234.427-.614.393-1.066a2.034 2.034 0 00-.094-.456 1.188 1.188 0 00-.267-.332 1.076 1.076 0 00-.58-.251 1.218 1.218 0 00-.207.591 3.608 3.608 0 00-.02.266.87.87 0 00-.015.274c.03.397.209.749.47.977v.13s0 .18-.002.357c.002.092-.006.163-.012.232l-.013.11a1.084 1.084 0 00-.102-.177c-.04-.054-.09-.092-.147-.14-.372-.339-.874-.448-1.257-.34a.692.692 0 00-.048.254c0 .044.005.105.013.088.008 0 .02-.004.033.05.05.163.155.335.316.506.29.31.688.536 1.056.554l-.029.124s-.04.171-.088.343c-.046.171-.1.34-.1.34a1.169 1.169 0 00-.17-.386 1.4 1.4 0 00-1.137-.617c-.189.238-.163.636.088 1.062.23.383.598.655.962.718l-.044.12-.122.34c-.062.167-.119.34-.119.34a1.458 1.458 0 00-.148-.407c-.239-.446-.672-.726-1.067-.749a.83.83 0 00-.184.533c-.006.222.048.46.17.688.219.412.598.665.964.718l-.042.123-.201.697a1.449 1.449 0 00-.17-.4c-.26-.443-.698-.723-1.097-.721-.224.313-.226.82.041 1.256.253.4.65.63 1.019.657l-.03.126-.083.353-.059.243-.025.11a1.544 1.544 0 00-.19-.386c-.286-.417-.742-.668-1.14-.64a.97.97 0 00-.136.59c.02.219.11.451.26.662.274.38.681.584 1.052.588l-.026.128s-.035.177-.058.357l-.052.36a1.518 1.518 0 00-.222-.374c-.326-.4-.782-.617-1.184-.563-.188.339-.113.843.207 1.242.293.362.728.538 1.092.515l-.013.13-.069.723a1.49 1.49 0 00-.24-.358c-.341-.374-.826-.564-1.217-.48-.161.35-.076.848.29 1.225.325.34.758.485 1.123.439l-.006.13-.006.113a4.32 4.32 0 00-.006.248v.364a1.55 1.55 0 00-.272-.339c-.377-.35-.858-.504-1.249-.395-.146.362.004.855.377 1.207.339.318.797.43 1.152.357l.006.13.034.726a1.467 1.467 0 00-.289-.32c-.39-.322-.9-.441-1.273-.306-.11.373.048.858.466 1.178.37.29.82.37 1.175.27l.013.13s.014.181.044.359l.054.36a1.506 1.506 0 00-.32-.295c-.429-.29-.924-.372-1.294-.207-.086.383.133.853.556 1.144.39.263.855.303 1.198.173l.025.128.073.355c.02.09.036.178.05.245.015.067.028.11.028.11-.1-.097-.203-.19-.339-.269-.437-.257-.956-.297-1.305-.1a.993.993 0 00.13.602c.115.195.295.37.523.498.412.23.867.232 1.2.073l.033.125.224.693a1.476 1.476 0 00-.364-.237c-.466-.215-.987-.21-1.317.015-.004.391.272.83.753 1.041.439.19.895.149 1.21-.041l.049.12s.067.17.131.34c.071.167.151.332.151.332a1.634 1.634 0 00-.391-.199c-.473-.175-.99-.123-1.299.136.009.402.36.806.85.973.44.153.9.06 1.193-.159l.061.115.172.322c.081.163.18.318.18.318a1.823 1.823 0 00-.404-.159c-.492-.123-1.004-.019-1.282.27a.993.993 0 00.3.548c.17.154.392.276.645.334.46.105.908-.035 1.175-.284l.071.109s.1.152.203.303c.105.148.216.295.216.295a1.603 1.603 0 00-.423-.115c-.5-.074-.997.083-1.244.4.096.39.523.718 1.035.781.479.048.9-.134 1.14-.412l.084.1.073.088c.044.053.1.124.163.19l.247.27a1.539 1.539 0 00-.431-.066c-.513-.01-.983.192-1.196.537a.96.96 0 00.42.473c.199.117.435.194.703.19.479-.004.876-.232 1.083-.537l.092.092s.031.033.081.08l.189.166.272.243a1.542 1.542 0 00-.433-.02c-.513.051-.958.309-1.13.675.197.349.67.596 1.199.524.474-.056.838-.328 1.01-.656l.104.077a1015.927 1015.927 0 00.5.36c.055.04.094.063.094.063a1.717 1.717 0 00-.433.031c-.5.104-.916.42-1.041.8.117.164.301.292.519.365.22.069.476.077.731.017.46-.105.8-.433.929-.774l.113.065.318.18c.077.045.159.087.222.117l.102.05a1.85 1.85 0 00-.429.085c-.48.16-.857.521-.939.914.266.308.79.415 1.28.239.448-.168.745-.523.835-.879l.119.053.334.144.341.13a1.527 1.527 0 00-.416.133c-.462.216-.793.611-.828 1.015a.957.957 0 00.261.165c.1.038.21.06.322.069.228.015.475-.023.711-.142.427-.218.682-.598.734-.964l.124.04.688.217a1.351 1.351 0 00-.395.163c-.42.264-.716.69-.705 1.096.175.125.335.17.54.165.198-.006.418-.075.629-.2.385-.23.65-.605.709-.969l.121.04.676.242a1.36 1.36 0 00-.404.145c-.441.24-.713.675-.736 1.07.263.23.707.241 1.144.01.397-.212.68-.568.759-.93l.12.048s.164.07.332.136l.328.142a1.359 1.359 0 00-.41.12c-.456.22-.749.64-.795 1.035.253.238.688.278 1.14.069.406-.188.71-.531.81-.887l.114.055a39.843 39.843 0 00.642.317 1.3 1.3 0 00-.416.097c-.466.192-.782.596-.849.987.237.253.667.314 1.128.132.414-.164.74-.49.861-.837l.11.063.313.175.309.182a1.34 1.34 0 00-.42.07c-.477.163-.818.545-.91.932.22.264.638.353 1.108.2.42-.135.77-.434.916-.773l.107.071.276.186c.073.05.174.032.226-.04a.16.16 0 00-.044-.223l-.289-.199z" fill="#3B60C9"/><path d="M43.014 32.053c2.023-4.032 2.112-9.503.24-14.635-.49-1.353-.917-2.522-1.047-4.182-.048-2.418.193-3.093.22-3.162.148-.375.303-.728.468-1.08l.803-1.698-1.466-1.173C37.224 2.118 31.184 0 24.766 0c-6.42 0-12.46 2.118-17.469 6.125L5.833 7.296l.8 1.696c.165.352.317.703.466 1.077.01.028.272.716.223 3.169-.125 1.635-.552 2.815-1.045 4.18-1.872 5.132-1.782 10.605.24 14.635 1.49 2.97 3.936 5.034 7.07 5.973 4.455 1.33 7.396 3.116 8.784 4.086l2.395 1.759 2.392-1.757c1.39-.972 4.335-2.76 8.784-4.088 3.136-.937 5.581-3.003 7.072-5.973zM25.97 41.51l-1.204.901-1.207-.901c-1.137-.858-4.385-3.056-9.63-4.62-2.815-.843-5.01-2.698-6.35-5.368-1.88-3.746-1.948-8.865-.185-13.696.506-1.395.982-2.716 1.116-4.53.05-2.478-.196-3.385-.305-3.661a18.907 18.907 0 00-.496-1.146l-.4-.85.733-.585c4.793-3.838 10.577-5.866 16.724-5.866 6.146 0 11.928 2.028 16.726 5.864l.734.585-.402.85c-.177.374-.34.75-.497 1.148-.134.338-.354 1.26-.304 3.66.138 1.84.615 3.147 1.12 4.531 1.762 4.829 1.691 9.95-.187 13.694-1.34 2.67-3.536 4.525-6.351 5.368-5.24 1.564-8.495 3.764-9.635 4.622z" fill="#3B60C9"/><path d="M47.816 27.36l.013-.13c.355.1.805.023 1.175-.27.418-.321.575-.804.466-1.177-.376-.138-.882-.018-1.273.306-.12.098-.214.207-.289.32l.033-.726.007-.13c.357.073.813-.04 1.152-.357.372-.35.52-.843.377-1.207-.392-.109-.873.046-1.249.395a1.547 1.547 0 00-.272.34v-.365c0-.09 0-.182-.006-.249a9.64 9.64 0 01-.006-.113l-.007-.13c.366.049.8-.098 1.123-.438.366-.377.452-.875.291-1.226-.391-.081-.876.107-1.217.481a1.41 1.41 0 00-.24.358l-.07-.724-.012-.13c.364.023.799-.154 1.092-.514.32-.397.395-.904.206-1.242-.401-.055-.857.163-1.183.562-.098.122-.17.247-.222.375l-.052-.36c-.023-.18-.059-.358-.059-.358l-.025-.127c.37-.004.778-.207 1.052-.588.15-.209.24-.443.26-.663a.97.97 0 00-.136-.59c-.4-.029-.854.222-1.14.64a1.543 1.543 0 00-.19.387s-.009-.044-.026-.11a24.379 24.379 0 01-.058-.243l-.084-.354-.03-.125c.367-.027.766-.257 1.02-.657.265-.437.263-.943.041-1.257-.4-.002-.836.279-1.102.716-.08.131-.134.267-.17.4l-.2-.697-.042-.124c.366-.052.745-.305.964-.717.121-.228.176-.469.17-.69a.832.832 0 00-.187-.536c-.397.026-.828.306-1.066.751a1.52 1.52 0 00-.147.408s-.056-.174-.119-.34c-.06-.17-.123-.34-.123-.34l-.044-.12c.364-.064.732-.338.96-.72.25-.427.274-.822.088-1.059a1.41 1.41 0 00-1.14.615 1.207 1.207 0 00-.17.387s-.054-.17-.1-.34a8.81 8.81 0 01-.088-.344l-.027-.123c.368-.019.766-.245 1.056-.552a1.29 1.29 0 00.316-.51c.023-.124.046.012.044-.138a.653.653 0 00-.048-.255c-.38-.105-.883.004-1.255.342a.724.724 0 00-.146.14 1.17 1.17 0 00-.103.18l-.012-.11a1.562 1.562 0 01-.015-.233l-.002-.357v-.13a1.44 1.44 0 00.47-1.123 1.289 1.289 0 00-.018-.125 3.533 3.533 0 00-.02-.266 1.253 1.253 0 00-.204-.594c-.199.019-.4.105-.58.251a1.295 1.295 0 00-.27.33 1.801 1.801 0 00-.092.458c-.033.452.139.83.396 1.065v.13l.002.364c-.002.092.009.196.017.26l.012.116a1.936 1.936 0 00-.138-.163c-.052-.057-.106-.123-.163-.182-.38-.337-.878-.475-1.26-.351a.844.844 0 00-.045.29c0 .025.002.05.005.078l.01.133c.006.05.019.097.027.14.01.049.019.063.032.095.087.228.248.445.468.606.397.293.86.318 1.2.178l.03.128s.041.18.092.355c.048.176.102.351.102.351a1.696 1.696 0 00-.357-.249c-.456-.236-.975-.28-1.316-.058-.027.43.262.895.732 1.106.427.195.885.163 1.207-.014l.044.12s.06.17.123.34.117.338.117.338a1.327 1.327 0 00-.364-.22c-.468-.187-.983-.141-1.303.097a.874.874 0 00.195.531c.121.153.301.285.531.377.416.165.876.154 1.203-.013l.041.121.2.689a1.31 1.31 0 00-.354-.239c-.452-.213-.962-.17-1.297.046-.033.345.213.703.667.914.397.194.853.215 1.192.067l.03.125.083.35.057.24c.016.065.023.109.023.109a1.325 1.325 0 00-.341-.262c-.446-.24-.956-.23-1.303-.037a.74.74 0 00.127.512c.105.165.262.322.477.441.39.22.845.27 1.192.145l.025.125s.036.176.059.354l.05.355a1.387 1.387 0 00-.316-.284c-.416-.272-.94-.293-1.294-.124-.07.337.117.722.54.994.376.242.817.326 1.175.223l.012.128.07.713a1.443 1.443 0 00-.304-.305c-.408-.297-.916-.356-1.284-.211-.096.33.088.725.47 1.024.354.268.802.38 1.161.306l.006.127.007.111c.004.067.006.157.006.247v.357a1.315 1.315 0 00-.274-.324c-.376-.324-.895-.418-1.267-.299-.111.322.016.728.397 1.052.34.293.763.437 1.133.387l-.006.128-.033.715a1.413 1.413 0 00-.257-.345c-.36-.354-.856-.481-1.243-.391-.142.311-.016.725.318 1.075.312.315.736.493 1.102.472l-.012.128s-.015.178-.044.355l-.052.354a1.321 1.321 0 00-.222-.362c-.32-.377-.822-.546-1.207-.483-.16.299-.092.713.234 1.091.287.34.686.548 1.057.557l-.026.125-.07.352c-.02.087-.036.175-.05.24l-.028.109a1.228 1.228 0 00-.197-.38c-.3-.406-.77-.61-1.164-.582a.717.717 0 00-.099.508c.021.19.099.393.24.594.258.36.65.606 1.013.648l-.031.124-.22.68a1.34 1.34 0 00-.159-.396c-.255-.427-.707-.67-1.102-.677-.222.257-.2.68.044 1.102.217.378.58.658.94.734l-.045.119-.13.332c-.07.163-.148.325-.148.325a1.247 1.247 0 00-.113-.406c-.226-.454-.653-.738-1.046-.785-.22.245-.27.649-.058 1.096.192.404.514.716.867.828l-.06.113-.167.316a5.23 5.23 0 01-.176.312 1.14 1.14 0 00-.077-.418c-.176-.473-.57-.797-.956-.883a.711.711 0 00-.236.45c-.034.184-.013.401.066.633.147.419.435.762.774.912l-.07.107-.2.297c-.102.146-.21.288-.21.288a1.262 1.262 0 00-.03-.42c-.126-.49-.485-.853-.86-.979-.267.189-.393.573-.278 1.054.092.423.35.803.667.987l-.081.099s-.03.033-.071.085a3.177 3.177 0 01-.16.187c-.118.131-.24.263-.24.263.028-.132.036-.274.017-.422-.063-.494-.389-.902-.742-1.067a.738.738 0 00-.327.38 1.37 1.37 0 00-.066.63c.045.433.257.843.554 1.06l-.09.09s-.032.034-.08.078l-.184.163-.265.236c.041-.13.065-.27.062-.422-.004-.496-.28-.935-.612-1.142-.312.109-.5.473-.51.951-.003.438.16.87.428 1.121l-.102.076-.291.207c-.073.052-.144.104-.199.142-.054.04-.092.06-.092.06.06-.119.096-.26.113-.411.05-.5-.167-.96-.475-1.207a.665.665 0 00-.401.295 1.26 1.26 0 00-.215.594c-.05.44.052.876.292 1.16l-.11.063-.31.176a2.851 2.851 0 01-.218.115l-.1.05c.071-.115.132-.239.161-.391.107-.494-.056-.977-.332-1.26-.323.047-.603.338-.718.817-.106.422-.048.874.155 1.183l-.117.052s-.163.074-.328.143c-.168.062-.333.127-.333.127a1.32 1.32 0 00.205-.37c.163-.475.054-.98-.188-1.288a.594.594 0 00-.239.056.73.73 0 00-.223.14c-.14.122-.26.312-.345.538-.155.408-.145.868.025 1.194l-.122.04-.688.217c.092-.1.174-.22.239-.36a1.387 1.387 0 00-.042-1.306c-.149-.017-.372.054-.544.175a1.319 1.319 0 00-.443.544c-.195.424-.172.88.004 1.205l-.123.041-.682.245c.086-.105.163-.228.222-.37.194-.47.156-.987-.084-1.307-.38.002-.784.293-.975.773-.173.431-.125.891.067 1.203l-.119.05s-.167.07-.335.138c-.167.071-.332.145-.332.145.08-.111.148-.239.2-.385.17-.477.105-.991-.15-1.299-.383.017-.77.337-.935.824-.148.443-.077.895.132 1.198l-.117.055-.326.159a8.995 8.995 0 00-.324.163c.073-.115.133-.247.177-.395.143-.488.049-.998-.223-1.29-.383.041-.753.382-.891.88-.124.451-.025.899.205 1.187l-.113.063s-.16.088-.316.178l-.314.184c.067-.12.12-.253.153-.406.11-.495-.013-1-.303-1.273-.383.065-.734.435-.841.943-.094.462.038.901.287 1.171l-.11.071-.282.188a.16.16 0 00-.044.224c.05.073.153.09.226.04l.276-.186.107-.071c.146.338.496.637.916.773.47.153.889.063 1.108-.2-.092-.385-.432-.77-.91-.931a1.32 1.32 0 00-.42-.07l.31-.179.312-.176.11-.062c.122.347.448.671.862.836.46.182.89.121 1.127-.134-.069-.39-.385-.794-.849-.985a1.286 1.286 0 00-.416-.096s.159-.084.32-.16l.322-.158.115-.054c.098.353.404.698.81.887.449.209.886.169 1.139-.07-.046-.393-.339-.813-.795-1.035a1.356 1.356 0 00-.41-.119s.166-.07.329-.142c.165-.069.332-.136.332-.136l.12-.048c.079.362.363.717.759.93.437.23.88.22 1.144-.01-.023-.395-.297-.832-.739-1.07a1.359 1.359 0 00-.403-.145l.675-.242.121-.042c.061.364.327.738.712.968.21.125.43.192.629.2a.83.83 0 00.537-.162c.01-.406-.286-.833-.704-1.096a1.355 1.355 0 00-.395-.163l.688-.218.123-.04c.052.366.307.745.732.965.236.12.48.158.71.144.116-.009.225-.032.323-.07a.91.91 0 00.261-.164c-.035-.404-.366-.8-.828-1.015a1.528 1.528 0 00-.416-.133l.34-.13c.17-.07.336-.145.336-.145l.119-.052c.09.356.387.711.834.879.49.175 1.014.07 1.28-.239-.08-.393-.458-.755-.939-.914a1.814 1.814 0 00-.429-.086l.103-.05c.06-.031.142-.07.221-.117l.318-.18.113-.065c.13.341.469.67.929.774.255.061.51.05.732-.016.217-.074.4-.203.518-.364-.123-.38-.541-.697-1.041-.801a1.722 1.722 0 00-.433-.032s.04-.023.094-.062c.057-.04.13-.092.203-.147l.297-.213.105-.077c.171.328.535.6 1.01.656.529.071 1-.175 1.198-.525-.172-.366-.617-.623-1.13-.675a1.47 1.47 0 00-.432.02l.272-.242.188-.167c.05-.046.081-.08.081-.08l.092-.092c.207.306.605.534 1.084.538a1.29 1.29 0 00.702-.19c.197-.12.352-.28.42-.473-.213-.345-.681-.548-1.196-.538a1.54 1.54 0 00-.43.067l.246-.27a3.34 3.34 0 00.163-.19l.074-.088.083-.1c.24.278.661.46 1.14.412.515-.063.94-.391 1.035-.782-.246-.316-.744-.473-1.244-.4a1.61 1.61 0 00-.422.115s.11-.144.215-.294c.1-.153.203-.304.203-.304l.07-.108c.269.248.716.389 1.176.284a1.44 1.44 0 00.644-.335.98.98 0 00.301-.547c-.278-.29-.79-.394-1.281-.27a1.788 1.788 0 00-.404.159s.096-.155.18-.318l.171-.322.06-.115c.294.22.754.313 1.195.159.49-.168.84-.57.849-.97-.31-.258-.826-.31-1.299-.137-.146.053-.278.12-.39.2 0 0 .079-.166.15-.334l.132-.338.048-.122c.316.19.771.233 1.21.042.48-.21.758-.65.753-1.041-.33-.226-.85-.23-1.317-.015-.14.065-.261.147-.364.236l.224-.692.033-.125c.335.159.79.157 1.2-.073.229-.128.408-.304.523-.496.107-.195.153-.406.13-.602-.35-.197-.868-.157-1.305.1a1.755 1.755 0 00-.339.268s.013-.044.028-.111c.014-.067.03-.157.05-.245.035-.178.073-.355.073-.355l.025-.128c.343.13.807.088 1.198-.173.423-.291.642-.762.557-1.144-.373-.168-.868-.084-1.295.205a1.5 1.5 0 00-.32.294l.055-.36c.041-.152.056-.334.056-.334z" fill="#3B60C9"/><path d="M16.825 30.545c-.732-1.746-1.472-3.574-2.532-5.13-.341-.502-.973-1.242-1.623-.637-.632.585.243 1.903.176 2.643-.095 1.02-.72 2.047-1.498 2.698-.53.443-2.072 1.173-1.512 2.064.352.56 1.357.16 1.849.069 1.221-.232 2.422.228 3.39.97.385.295.688.703 1.138.908.167.077.31.115.43.121a.53.53 0 00.304-.065c1.041-.602.426-2.35.07-3.189-.064-.148-.127-.3-.192-.452zm23.91-3.35c-.803-.527-2 .77-2.82.895-1.13.172-2.41-.234-3.32-.905-.623-.458-1.824-1.935-2.64-1.092-.512.529.187 1.514.419 2.022.577 1.263.397 2.685-.15 3.932-.218.495-.578.933-.682 1.474a1.377 1.377 0 00-.017.5.6.6 0 00.15.312c.931.968 2.66-.164 3.476-.772.144-.109.29-.218.44-.326 1.697-1.257 3.481-2.547 4.887-4.112.451-.504 1.087-1.384.257-1.928z" fill="#3350A3"/><path d="M35.172 24.947a1.721 1.721 0 003.35.782 1.721 1.721 0 00-3.35-.782z" fill="#3350A3"/><path d="M15.76 21.996a36.651 36.651 0 00-.047 1.585c.052-.014.104-.025.157-.037.052-.49.115-.98.19-1.468 1.12.296 2.31.537 3.51.717.001-.006.001-.013.003-.019.103-.51.28-.991.523-1.428a24.924 24.924 0 01-3.714-.99c.377-1.714.929-3.387 1.7-4.962 1.64.443 3.342.642 4.3.74.49.05.98.088 1.474.109l.165 2.535a5.086 5.086 0 01.826-.003l.166-2.507c2.007-.004 4.015-.26 5.935-.805.878 1.805 1.466 3.741 1.836 5.717a26.196 26.196 0 01-3.723.628c.132.31.23.627.297.953a25.555 25.555 0 003.54-.926 32.23 32.23 0 01.354 3.25 31.12 31.12 0 00-.035-3.36c2.051-.735 4.002-1.745 5.717-3.033a16.06 16.06 0 011.709 6.393 16.138 16.138 0 00-1.228-6.77l-.01-.025c-2.432-5.811-8.15-9.956-14.777-10.343l-.023-.002-.023-.002h-.176l-.023.002-.017.002c-9.042.483-16.282 8.012-16.02 17.136a15.83 15.83 0 011.547-6.105c1.062 1.278 3.266 2.3 5.868 3.018zm23.145-3.367c-1.74 1.115-3.695 1.92-5.732 2.455-.161-1.949-.513-4.036-1.14-5.962a17.797 17.797 0 003.014-1.378 15.99 15.99 0 013.858 4.885zm-3.91-4.93c-.996.455-2.03.806-3.083 1.065-.512-1.476-1.196-2.842-2.09-3.96a15.48 15.48 0 015.172 2.896zm-9.577-3.592c2.45.4 4.233 2.842 5.306 4.908a21.144 21.144 0 01-5.642.222c.113-1.71.223-3.421.336-5.13zm-1.961.021c.109 1.65.215 3.302.324 4.952a21.399 21.399 0 01-4.825-1.26c1.067-1.688 2.573-3.32 4.5-3.692zm-4.298.698a12.008 12.008 0 00-1.48 2.456c-.594-.276-1.199-.621-1.59-1.059a15.689 15.689 0 013.07-1.397zm-4.818 2.602c.586.709 1.556 1.236 2.645 1.627-.545 1.652-.886 3.426-1.075 5.13-1.867-.715-3.59-1.698-4.983-3.022a15.907 15.907 0 013.413-3.735zm-4.224 5.12c-.038.173-.103.324-.216.43.07-.144.142-.288.216-.43z" fill="#3350A3"/><path d="M21.736 22.93a2.791 2.791 0 105.474 1.094 2.791 2.791 0 00-5.474-1.093z" fill="#242835"/><path d="M30.43 27.132c-1.325-.627-3.247.671-4.537.935-1.721.351-3.313-.422-4.666-1.424-.882-.655-3.17-2.658-4.33-1.62-1.326 1.187 1.242 3.496 1.898 4.433 1.107 1.579 2.104 3.241 2.87 5.015.497 1.156.637 2.377 1.248 3.383.234.387.54.74.96 1.048 1.083.788 2.587.968 3.093-.544.374-1.119-.096-2.338-.002-3.48.132-1.597.822-3.157 1.963-4.291.802-.795 3.144-2.294 1.502-3.455z" fill="#242835"/></svg>